Coordinates
version=1
nRows=17
nColumns=38
inDegrees=no

Units are S.I. units (second, meters, Newtons, ...)
If the header above contains a line with 'inDegrees', this indicates whether rotational values are in degrees (yes) or radians (no).

endheader
time	pelvis_tilt	pelvis_list	pelvis_rotation	pelvis_tx	pelvis_ty	pelvis_tz	hip_flexion_r	hip_adduction_r	hip_rotation_r	knee_angle_r	ankle_angle_r	subtalar_angle_r	mtp_angle_r	hip_flexion_l	hip_adduction_l	hip_rotation_l	knee_angle_l	ankle_angle_l	subtalar_angle_l	mtp_angle_l	lumbar_extension	lumbar_bending	lumbar_rotation	arm_flex_r	arm_add_r	arm_rot_r	elbow_flex_r	pro_sup_r	wrist_flex_r	wrist_dev_r	arm_flex_l	arm_add_l	arm_rot_l	elbow_flex_l	pro_sup_l	wrist_flex_l	wrist_dev_l
0	2.13733	1.46245	-0.516973	0.800364	-0.616365	1.00591	-0.0586344	0.105228	-0.349483	0.288194	0.173436	0	0	0.485572	-0.204544	-0.152908	0.804133	-0.0328872	0	0	-0.321935	0.0825627	0.0197427	0.0857712	-0.163799	0.0923401	0.25131	1.46933	0	0	0.196957	-0.2062	0.153073	0.110856	1.5708	0	0
0.01	2.41618	1.45006	-0.815243	0.802087	-0.60746	1.0103	-0.102718	0.084106	-0.384257	0.295112	0.177868	0	0	0.439602	-0.19995	-0.173986	0.753009	-0.02098	0	0	-0.36443	0.0646494	0.0342001	0.0962322	-0.160356	0.0986183	0.249681	1.46403	0	0	0.202819	-0.20988	0.151672	0.112682	1.5708	0	0
0.02	2.57711	1.44697	-0.973444	0.802207	-0.598773	1.01085	-0.126799	0.0809928	-0.364041	0.293359	0.17348	0	0	0.41437	-0.186262	-0.201434	0.695331	-0.0164167	0	0	-0.381448	0.0500083	0.0314364	0.0972604	-0.158267	0.103258	0.251042	1.45583	0	0	0.208027	-0.212719	0.151184	0.113817	1.5708	0	0
0.03	2.63668	1.45872	-1.03469	0.799579	-0.588917	1.0088	-0.14844	0.0674997	-0.329405	0.260804	0.18693	0	0	0.409842	-0.171173	-0.228835	0.638868	-0.00846082	0	0	-0.371848	0.0409833	0.0247895	0.0906531	-0.164529	0.129729	0.263124	1.42349	0	0	0.201458	-0.211876	0.154854	0.116672	1.5708	0	0
0.04	2.55423	1.45516	-0.95846	0.799697	-0.581216	1.00861	-0.14836	0.0671576	-0.371471	0.277447	0.197026	0	0	0.406102	-0.181514	-0.247705	0.586451	-0.00384648	0	0	-0.375236	0.0502085	0.0336279	0.0945424	-0.167812	0.134126	0.265431	1.41907	0	0	0.204538	-0.210055	0.15679	0.119618	1.5708	0	0
0.05	2.63073	1.45464	-1.03632	0.799441	-0.570174	1.00717	-0.182194	0.0728837	-0.313072	0.241282	0.19374	0	0	0.384232	-0.155556	-0.222526	0.520614	0.011169	0	0	-0.374556	0.0417096	0.0334571	0.0838254	-0.170323	0.161085	0.276703	1.3868	0	0	0.196286	-0.21516	0.173851	0.129059	1.5708	0	0
0.06	2.72576	1.4675	-1.1254	0.796945	-0.562487	1.00633	-0.18147	0.0531084	-0.322604	0.248122	0.203844	0	0	0.38729	-0.143741	-0.271923	0.478385	0.016779	0	0	-0.372214	0.0305439	0.0231712	0.0870565	-0.171969	0.164265	0.278308	1.38329	0	0	0.198213	-0.215152	0.176537	0.135182	1.5708	0	0
0.07	2.65474	1.46833	-1.05695	0.796001	-0.552187	1.00407	-0.190497	0.0584172	-0.320097	0.245583	0.212335	0	0	0.383618	-0.136382	-0.247856	0.430861	0.0286754	0	0	-0.363611	0.0380357	0.027448	0.0790148	-0.178562	0.179925	0.287754	1.36239	0	0	0.188261	-0.215745	0.194368	0.148061	1.5708	0	0
0.08	2.70797	1.46312	-1.11385	0.796408	-0.542787	1.00411	-0.214464	0.058511	-0.308246	0.232429	0.210118	0	0	0.368652	-0.130886	-0.25856	0.390314	0.0303171	0	0	-0.37287	0.0325087	0.0307242	0.0793078	-0.177464	0.192753	0.290674	1.33775	0	0	0.186873	-0.221047	0.206923	0.157245	1.5708	0	0
0.09	2.74204	1.4127	-1.21235	0.804108	-0.536322	1.00935	-0.28204	0.0733997	-0.204071	0.205987	0.177509	0	0	0.288741	-0.16788	-0.324179	0.333819	0.0281912	0	0	-0.441027	0.0183905	0.0981939	0.0948562	-0.179066	0.215466	0.298011	1.31176	0	0	0.206954	-0.225227	0.217891	0.158744	1.5708	0	0
0.1	2.80928	1.47151	-1.20709	0.792341	-0.524384	1.00167	-0.231752	0.0421478	-0.312614	0.232426	0.214999	0	0	0.356326	-0.0970173	-0.236541	0.308825	0.0229206	0	0	-0.370061	0.0251174	0.0201384	0.0741968	-0.183839	0.215248	0.299383	1.31032	0	0	0.186761	-0.219448	0.21295	0.157748	1.5708	0	0
0.11	2.86288	1.47485	-1.25805	0.790849	-0.514534	1.00035	-0.236822	0.0323154	-0.322668	0.243605	0.223419	0	0	0.354594	-0.0844553	-0.232953	0.286811	0.0228006	0	0	-0.367292	0.020205	0.0162467	0.0706057	-0.183841	0.217195	0.300735	1.30915	0	0	0.185126	-0.219638	0.213039	0.158547	1.5708	0	0
0.12	2.92844	1.47476	-1.32171	0.789396	-0.50433	0.99929	-0.246804	0.0230696	-0.32941	0.252354	0.234768	0	0	0.350496	-0.0736539	-0.229671	0.273341	0.0253001	0	0	-0.367344	0.0147614	0.0137824	0.0659828	-0.18363	0.21739	0.303543	1.30715	0	0	0.183687	-0.219842	0.213888	0.158995	1.5708	0	0
0.13	2.95871	1.4645	-1.35878	0.789859	-0.493501	0.999185	-0.269325	0.0215875	-0.321134	0.252494	0.233287	0	0	0.33944	-0.0752569	-0.244972	0.27373	0.0360344	0	0	-0.376371	0.00945681	0.0214496	0.0610529	-0.181036	0.216451	0.306676	1.30391	0	0	0.183223	-0.222162	0.214997	0.158251	1.5708	0	0
0.14	3.01198	1.46792	-1.40962	0.786978	-0.483219	0.997501	-0.271624	0.00934227	-0.328074	0.267417	0.236912	0	0	0.34125	-0.0638773	-0.239968	0.271863	0.0447772	0	0	-0.370979	0.00665283	0.0188371	0.0540489	-0.185001	0.214496	0.31192	1.30149	0	0	0.181604	-0.218008	0.215657	0.155959	1.5708	0	0
0.15	3.04879	1.46556	-1.4483	0.785597	-0.472292	0.996543	-0.279771	0.00078799	-0.330716	0.281825	0.240947	0	0	0.337577	-0.058643	-0.246137	0.276257	0.0551773	0	0	-0.370168	0.00247198	0.021108	0.0469953	-0.185301	0.211731	0.314747	1.29853	0	0	0.1795	-0.216517	0.215502	0.153961	1.5708	0	0
0.16	3.09246	1.46347	-1.49423	0.784043	-0.461134	0.995585	-0.283251	-0.0106619	-0.335269	0.305691	0.24872	0	0	0.333481	-0.0525426	-0.255612	0.283096	0.0645535	0	0	-0.368243	-0.00266904	0.0234091	0.0388035	-0.185941	0.208967	0.318078	1.29684	0	0	0.176279	-0.21471	0.215792	0.152088	1.5708	0	0
